<svg width="16" height="17" viewBox="0 0 16 17" fill="none" xmlns="http://www.w3.org/2000/svg">
<path d="M7.99996 1.83333C5.19996 1.83333 2.66663 3.97999 2.66663 7.29999C2.66663 9.41999 4.29996 11.9133 7.55996 14.7867C7.81329 15.0067 8.19329 15.0067 8.44663 14.7867C11.7 11.9133 13.3333 9.41999 13.3333 7.29999C13.3333 3.97999 10.8 1.83333 7.99996 1.83333ZM7.99996 8.5C7.26663 8.5 6.66663 7.9 6.66663 7.16666C6.66663 6.43333 7.26663 5.83333 7.99996 5.83333C8.73329 5.83333 9.33329 6.43333 9.33329 7.16666C9.33329 7.9 8.73329 8.5 7.99996 8.5Z" fill="#0C131D"/>
</svg>
